<svg width="428" height="428" viewBox="0 0 428 428" fill="none" xmlns="http://www.w3.org/2000/svg">
<circle cx="214" cy="214" r="214" fill="#222233"/>
<path d="M295 226.5C301.904 226.5 307.5 220.904 307.5 214C307.5 207.096 301.904 201.5 295 201.5V226.5ZM123.161 205.161C118.28 210.043 118.28 217.957 123.161 222.839L202.711 302.388C207.592 307.27 215.507 307.27 220.388 302.388C225.27 297.507 225.27 289.592 220.388 284.711L149.678 214L220.388 143.289C225.27 138.408 225.27 130.493 220.388 125.612C215.507 120.73 207.592 120.73 202.711 125.612L123.161 205.161ZM295 201.5L132 201.5V226.5L295 226.5V201.5Z" fill="white"/>
</svg>
