<svg width="335" height="42" viewBox="0 0 335 42" fill="none" xmlns="http://www.w3.org/2000/svg">
<path d="M0.333333 21C0.333333 22.4728 1.52724 23.6667 3 23.6667C4.47276 23.6667 5.66667 22.4728 5.66667 21C5.66667 19.5273 4.47276 18.3334 3 18.3334C1.52724 18.3334 0.333333 19.5273 0.333333 21ZM329.333 21C329.333 22.4728 330.527 23.6667 332 23.6667C333.473 23.6667 334.667 22.4728 334.667 21C334.667 19.5273 333.473 18.3334 332 18.3334C330.527 18.3334 329.333 19.5273 329.333 21ZM3 21C2.53083 21.1729 2.53114 21.1737 2.53147 21.1746C2.53162 21.175 2.53199 21.176 2.53228 21.1768C2.53288 21.1784 2.5336 21.1803 2.53443 21.1824C2.53608 21.1868 2.53821 21.1922 2.54084 21.1988C2.5461 21.212 2.55335 21.2297 2.56281 21.2518C2.58173 21.2958 2.6095 21.3573 2.64788 21.4351C2.72467 21.5905 2.84388 21.8109 3.01964 22.0869C3.37129 22.6392 3.94848 23.4132 4.86366 24.3364C6.69422 26.183 9.87215 28.6219 15.2935 31.0804C26.1304 35.9948 45.9568 40.9995 81.9931 41.5L82.007 40.5001C46.0432 40.0006 26.3696 35.0053 15.7065 30.1697C10.3779 27.7532 7.30578 25.3795 5.57385 23.6324C4.70778 22.7587 4.17558 22.0405 3.86317 21.5498C3.70691 21.3044 3.6054 21.1156 3.5445 20.9922C3.51404 20.9306 3.49371 20.8852 3.48175 20.8574C3.47577 20.8434 3.47188 20.8339 3.46985 20.8288C3.46884 20.8262 3.4683 20.8248 3.46819 20.8245C3.46814 20.8244 3.4682 20.8246 3.46836 20.825C3.46844 20.8252 3.46865 20.8258 3.46869 20.8259C3.46892 20.8265 3.46917 20.8272 3 21ZM81.9931 41.5C118.084 42.0013 152.655 31.7254 184.155 21.4755C199.916 16.347 214.896 11.2285 228.942 7.45165C242.987 3.67507 256.059 1.25138 267.99 1.49992L268.01 0.500139C255.941 0.248697 242.763 2.70002 228.683 6.48595C214.604 10.2716 199.584 15.4031 183.845 20.5246C152.345 30.7746 117.916 40.9988 82.007 40.5001L81.9931 41.5ZM267.99 1.49992C291.923 1.99852 307.851 6.98363 317.781 11.8245C322.747 14.2453 326.216 16.6316 328.438 18.4063C329.549 19.2938 330.349 20.0285 330.868 20.5385C331.128 20.7935 331.318 20.9923 331.441 21.1259C331.503 21.1927 331.548 21.2432 331.578 21.2762C331.592 21.2928 331.603 21.305 331.609 21.3127C331.613 21.3165 331.615 21.3192 331.616 21.3208C331.617 21.3216 331.618 21.3221 331.618 21.3223C331.618 21.3224 331.618 21.3224 331.618 21.3224C331.618 21.3223 331.618 21.3221 332 21C332.382 20.678 332.382 20.6776 332.382 20.6772C332.382 20.677 332.381 20.6765 332.381 20.676C332.38 20.6751 332.379 20.6738 332.378 20.6723C332.375 20.6693 332.372 20.6651 332.367 20.6598C332.358 20.6493 332.345 20.6342 332.328 20.6147C332.293 20.5759 332.243 20.5195 332.176 20.4469C332.041 20.3017 331.841 20.0914 331.569 19.8248C331.026 19.2918 330.201 18.5344 329.062 17.6249C326.784 15.8059 323.253 13.3797 318.219 10.9256C308.149 6.01639 292.077 1.00151 268.01 0.500139L267.99 1.49992Z" fill="white"/>
<defs>
<linearGradient id="paint0_linear_1_4" x1="3" y1="41.0176" x2="332" y2="41.0176" gradientUnits="userSpaceOnUse">
<stop stop-color="#EC4899"/>
<stop offset="0.484375" stop-color="#EF4444"/>
<stop offset="1" stop-color="#EAB308"/>
</linearGradient>
</defs>
</svg>
